<mxfile host="app.diagrams.net" modified="2023-12-23T06:02:01.181Z" agent="Mozilla/5.0 (Windows NT 10.0; Win64; x64) AppleWebKit/537.36 (KHTML, like Gecko) Chrome/119.0.0.0 Safari/537.36" etag="mRK1X9m0tqfO2jYO1wgH" version="22.1.11" type="github">
  <diagram name="第 1 页" id="bFHXOFejUqpM1fbCwYe7">
    <mxGraphModel dx="1235" dy="735" grid="0" gridSize="10" guides="1" tooltips="1" connect="1" arrows="1" fold="1" page="1" pageScale="1" pageWidth="2336" pageHeight="1654" math="0" shadow="0">
      <root>
        <mxCell id="0" />
        <mxCell id="1" parent="0" />
        <mxCell id="3P8DteM4XdDS-40TDfUw-1" value="" style="rounded=1;whiteSpace=wrap;html=1;" vertex="1" parent="1">
          <mxGeometry x="290" y="160" width="430" height="410" as="geometry" />
        </mxCell>
        <mxCell id="3P8DteM4XdDS-40TDfUw-2" value="&lt;font face=&quot;Comic Sans MS&quot; style=&quot;font-size: 20px;&quot;&gt;vintf&lt;/font&gt;" style="rounded=1;whiteSpace=wrap;html=1;fillColor=none;strokeColor=none;fontSize=20;" vertex="1" parent="1">
          <mxGeometry x="430" y="100" width="120" height="60" as="geometry" />
        </mxCell>
        <mxCell id="3P8DteM4XdDS-40TDfUw-8" style="edgeStyle=orthogonalEdgeStyle;rounded=0;orthogonalLoop=1;jettySize=auto;html=1;exitX=1;exitY=0.5;exitDx=0;exitDy=0;entryX=0;entryY=0.5;entryDx=0;entryDy=0;" edge="1" parent="1" source="3P8DteM4XdDS-40TDfUw-3" target="3P8DteM4XdDS-40TDfUw-5">
          <mxGeometry relative="1" as="geometry" />
        </mxCell>
        <mxCell id="3P8DteM4XdDS-40TDfUw-9" style="edgeStyle=orthogonalEdgeStyle;rounded=0;orthogonalLoop=1;jettySize=auto;html=1;exitX=1;exitY=0.5;exitDx=0;exitDy=0;entryX=0;entryY=0.5;entryDx=0;entryDy=0;" edge="1" parent="1" source="3P8DteM4XdDS-40TDfUw-3" target="3P8DteM4XdDS-40TDfUw-6">
          <mxGeometry relative="1" as="geometry" />
        </mxCell>
        <mxCell id="3P8DteM4XdDS-40TDfUw-3" value="&lt;font style=&quot;font-size: 18px;&quot; face=&quot;Comic Sans MS&quot;&gt;manifest&lt;br&gt;&lt;/font&gt;提供给对方的feature&lt;font style=&quot;font-size: 18px;&quot; face=&quot;Comic Sans MS&quot;&gt;&lt;br&gt;&lt;/font&gt;" style="rounded=1;whiteSpace=wrap;html=1;align=center;verticalAlign=middle;fillColor=#f5f5f5;fontColor=#333333;strokeColor=#666666;" vertex="1" parent="1">
          <mxGeometry x="300" y="220" width="140" height="60" as="geometry" />
        </mxCell>
        <mxCell id="3P8DteM4XdDS-40TDfUw-10" style="edgeStyle=orthogonalEdgeStyle;rounded=0;orthogonalLoop=1;jettySize=auto;html=1;exitX=1;exitY=0.5;exitDx=0;exitDy=0;" edge="1" parent="1" source="3P8DteM4XdDS-40TDfUw-4" target="3P8DteM4XdDS-40TDfUw-7">
          <mxGeometry relative="1" as="geometry" />
        </mxCell>
        <mxCell id="3P8DteM4XdDS-40TDfUw-4" value="&lt;font style=&quot;font-size: 18px;&quot; face=&quot;Comic Sans MS&quot;&gt;Matrix&amp;nbsp;&lt;br&gt;&lt;/font&gt;需要对方提供的feature&lt;font style=&quot;font-size: 18px;&quot; face=&quot;Comic Sans MS&quot;&gt;&lt;br&gt;&lt;/font&gt;" style="rounded=1;whiteSpace=wrap;html=1;align=center;verticalAlign=middle;fillColor=#f5f5f5;fontColor=#333333;strokeColor=#666666;" vertex="1" parent="1">
          <mxGeometry x="300" y="430" width="140" height="60" as="geometry" />
        </mxCell>
        <mxCell id="3P8DteM4XdDS-40TDfUw-5" value="&lt;font style=&quot;&quot; face=&quot;Comic Sans MS&quot;&gt;&lt;font style=&quot;font-size: 16px;&quot;&gt;framework manifest&lt;/font&gt;&lt;span style=&quot;font-size: 13px;&quot;&gt;&amp;nbsp;&lt;/span&gt;&lt;br&gt;&lt;/font&gt;/system/manifest.xml&lt;font style=&quot;font-size: 18px;&quot; face=&quot;Comic Sans MS&quot;&gt;&lt;br&gt;&lt;/font&gt;" style="rounded=1;whiteSpace=wrap;html=1;align=center;verticalAlign=middle;fillColor=#e1d5e7;strokeColor=#9673a6;" vertex="1" parent="1">
          <mxGeometry x="480" y="170" width="240" height="60" as="geometry" />
        </mxCell>
        <mxCell id="3P8DteM4XdDS-40TDfUw-6" value="&lt;font style=&quot;font-size: 16px;&quot; face=&quot;Comic Sans MS&quot;&gt;Device manifest&lt;br&gt;&lt;/font&gt;/vendor/manifest.xml&lt;font style=&quot;font-size: 18px;&quot; face=&quot;Comic Sans MS&quot;&gt;&lt;br&gt;&lt;/font&gt;" style="rounded=1;whiteSpace=wrap;html=1;align=center;verticalAlign=middle;fillColor=#e1d5e7;strokeColor=#9673a6;" vertex="1" parent="1">
          <mxGeometry x="480" y="270" width="240" height="60" as="geometry" />
        </mxCell>
        <mxCell id="3P8DteM4XdDS-40TDfUw-7" value="&lt;font style=&quot;&quot; face=&quot;Comic Sans MS&quot;&gt;&lt;font style=&quot;font-size: 16px;&quot;&gt;Device compatibility matrix&lt;/font&gt;&lt;br&gt;&lt;/font&gt;device对framework的需求&lt;font style=&quot;font-size: 18px;&quot; face=&quot;Comic Sans MS&quot;&gt;&lt;br&gt;&lt;/font&gt;" style="rounded=1;whiteSpace=wrap;html=1;align=center;verticalAlign=middle;fillColor=#e1d5e7;strokeColor=#9673a6;" vertex="1" parent="1">
          <mxGeometry x="480" y="430" width="240" height="60" as="geometry" />
        </mxCell>
        <mxCell id="3P8DteM4XdDS-40TDfUw-11" value="&lt;font face=&quot;Comic Sans MS&quot;&gt;manifest.version&lt;/font&gt;&lt;font style=&quot;font-size: 18px;&quot; face=&quot;Comic Sans MS&quot;&gt;&lt;br&gt;&lt;/font&gt;" style="rounded=1;whiteSpace=wrap;html=1;align=center;verticalAlign=middle;fillColor=#ffe6cc;strokeColor=#d79b00;" vertex="1" parent="1">
          <mxGeometry x="740" y="160" width="130" height="30" as="geometry" />
        </mxCell>
        <mxCell id="3P8DteM4XdDS-40TDfUw-12" value="manifest.type&lt;font style=&quot;font-size: 18px;&quot;&gt;&lt;br&gt;&lt;/font&gt;" style="rounded=1;whiteSpace=wrap;html=1;align=center;verticalAlign=middle;fontFamily=Comic Sans MS;fillColor=#ffe6cc;strokeColor=#d79b00;" vertex="1" parent="1">
          <mxGeometry x="740" y="200" width="130" height="30" as="geometry" />
        </mxCell>
        <mxCell id="3P8DteM4XdDS-40TDfUw-13" value="manifest.hal&lt;font style=&quot;font-size: 18px;&quot;&gt;&lt;br&gt;&lt;/font&gt;" style="rounded=1;whiteSpace=wrap;html=1;align=center;verticalAlign=middle;fillColor=#d5e8d4;strokeColor=#82b366;fontFamily=Comic Sans MS;" vertex="1" parent="1">
          <mxGeometry x="740" y="240" width="130" height="30" as="geometry" />
        </mxCell>
        <mxCell id="3P8DteM4XdDS-40TDfUw-14" value="manifest.hal.format&lt;font style=&quot;font-size: 18px;&quot;&gt;&lt;br&gt;&lt;/font&gt;" style="rounded=1;whiteSpace=wrap;html=1;align=center;verticalAlign=middle;fillColor=#d5e8d4;strokeColor=#82b366;fontFamily=Comic Sans MS;" vertex="1" parent="1">
          <mxGeometry x="740" y="280" width="130" height="30" as="geometry" />
        </mxCell>
        <mxCell id="3P8DteM4XdDS-40TDfUw-15" value="manifest.hal.name&lt;font style=&quot;font-size: 18px;&quot;&gt;&lt;br&gt;&lt;/font&gt;" style="rounded=1;whiteSpace=wrap;html=1;align=center;verticalAlign=middle;fontFamily=Comic Sans MS;fillColor=#ffe6cc;strokeColor=#d79b00;" vertex="1" parent="1">
          <mxGeometry x="740" y="320" width="130" height="30" as="geometry" />
        </mxCell>
        <mxCell id="3P8DteM4XdDS-40TDfUw-16" value="manifest.hal.transport&lt;font style=&quot;font-size: 18px;&quot;&gt;&lt;br&gt;&lt;/font&gt;" style="rounded=1;whiteSpace=wrap;html=1;align=center;verticalAlign=middle;fontFamily=Comic Sans MS;fillColor=#d5e8d4;strokeColor=#82b366;" vertex="1" parent="1">
          <mxGeometry x="890" y="160" width="160" height="30" as="geometry" />
        </mxCell>
        <mxCell id="3P8DteM4XdDS-40TDfUw-17" value="&lt;font style=&quot;&quot;&gt;&lt;font style=&quot;font-size: 12px;&quot;&gt;manifest.hal.transport.arch&lt;/font&gt;&lt;br&gt;&lt;/font&gt;" style="rounded=1;whiteSpace=wrap;html=1;align=center;verticalAlign=middle;fontFamily=Comic Sans MS;fillColor=#d5e8d4;strokeColor=#82b366;" vertex="1" parent="1">
          <mxGeometry x="890" y="200" width="160" height="30" as="geometry" />
        </mxCell>
        <mxCell id="3P8DteM4XdDS-40TDfUw-18" value="&lt;font style=&quot;&quot;&gt;manifest.hal.version&lt;br&gt;&lt;/font&gt;" style="rounded=1;whiteSpace=wrap;html=1;align=center;verticalAlign=middle;fontFamily=Comic Sans MS;fillColor=#ffe6cc;strokeColor=#d79b00;" vertex="1" parent="1">
          <mxGeometry x="890" y="240" width="160" height="30" as="geometry" />
        </mxCell>
        <mxCell id="3P8DteM4XdDS-40TDfUw-20" value="manifest.hal.interface&lt;font style=&quot;font-size: 18px;&quot;&gt;&lt;br&gt;&lt;/font&gt;" style="rounded=1;whiteSpace=wrap;html=1;align=center;verticalAlign=middle;fontFamily=Comic Sans MS;fillColor=#ffe6cc;strokeColor=#d79b00;" vertex="1" parent="1">
          <mxGeometry x="890" y="280" width="160" height="30" as="geometry" />
        </mxCell>
        <mxCell id="3P8DteM4XdDS-40TDfUw-21" value="manifest.hal.interface.name&lt;font style=&quot;font-size: 18px;&quot;&gt;&lt;br&gt;&lt;/font&gt;" style="rounded=1;whiteSpace=wrap;html=1;align=center;verticalAlign=middle;fontFamily=Comic Sans MS;fillColor=#ffe6cc;strokeColor=#d79b00;" vertex="1" parent="1">
          <mxGeometry x="890" y="320" width="160" height="30" as="geometry" />
        </mxCell>
        <mxCell id="3P8DteM4XdDS-40TDfUw-22" value="manifest.hal.interface.instance&lt;font style=&quot;font-size: 18px;&quot;&gt;&lt;br&gt;&lt;/font&gt;" style="rounded=1;whiteSpace=wrap;html=1;align=center;verticalAlign=middle;fontFamily=Comic Sans MS;fillColor=#ffe6cc;strokeColor=#d79b00;" vertex="1" parent="1">
          <mxGeometry x="1070" y="160" width="180" height="30" as="geometry" />
        </mxCell>
        <mxCell id="3P8DteM4XdDS-40TDfUw-23" value="manifest.sepolicy&lt;font style=&quot;font-size: 18px;&quot;&gt;&lt;br&gt;&lt;/font&gt;" style="rounded=1;whiteSpace=wrap;html=1;align=center;verticalAlign=middle;fontFamily=Comic Sans MS;fillColor=#ffe6cc;strokeColor=#d79b00;" vertex="1" parent="1">
          <mxGeometry x="1070" y="200" width="180" height="30" as="geometry" />
        </mxCell>
        <mxCell id="3P8DteM4XdDS-40TDfUw-24" value="manifest.sepolicy.version&lt;font style=&quot;font-size: 18px;&quot;&gt;&lt;br&gt;&lt;/font&gt;" style="rounded=1;whiteSpace=wrap;html=1;align=center;verticalAlign=middle;fontFamily=Comic Sans MS;fillColor=#d5e8d4;strokeColor=#82b366;" vertex="1" parent="1">
          <mxGeometry x="1070" y="240" width="180" height="30" as="geometry" />
        </mxCell>
        <mxCell id="3P8DteM4XdDS-40TDfUw-25" value="compatibility-matrix.version&lt;font style=&quot;font-size: 18px;&quot;&gt;&lt;br&gt;&lt;/font&gt;" style="rounded=1;whiteSpace=wrap;html=1;align=center;verticalAlign=middle;fontFamily=Comic Sans MS;fillColor=#ffe6cc;strokeColor=#d79b00;" vertex="1" parent="1">
          <mxGeometry x="740" y="370" width="180" height="30" as="geometry" />
        </mxCell>
        <mxCell id="3P8DteM4XdDS-40TDfUw-26" value="" style="strokeWidth=2;html=1;shape=mxgraph.flowchart.annotation_2;align=left;labelPosition=right;pointerEvents=1;strokeColor=#3D3D3D;" vertex="1" parent="1">
          <mxGeometry x="720" y="170" width="20" height="170" as="geometry" />
        </mxCell>
        <mxCell id="3P8DteM4XdDS-40TDfUw-27" value="" style="strokeWidth=2;html=1;shape=mxgraph.flowchart.annotation_2;align=left;labelPosition=right;pointerEvents=1;strokeColor=#3D3D3D;fontFamily=Comic Sans MS;" vertex="1" parent="1">
          <mxGeometry x="720" y="380" width="20" height="170" as="geometry" />
        </mxCell>
        <mxCell id="3P8DteM4XdDS-40TDfUw-28" value="compatibility-matrix.type&lt;font style=&quot;font-size: 18px;&quot;&gt;&lt;br&gt;&lt;/font&gt;" style="rounded=1;whiteSpace=wrap;html=1;align=center;verticalAlign=middle;fontFamily=Comic Sans MS;fillColor=#ffe6cc;strokeColor=#d79b00;" vertex="1" parent="1">
          <mxGeometry x="740" y="410" width="180" height="30" as="geometry" />
        </mxCell>
        <mxCell id="3P8DteM4XdDS-40TDfUw-32" value="compatibility-matrix.hal.name&lt;font style=&quot;font-size: 18px;&quot;&gt;&lt;br&gt;&lt;/font&gt;" style="rounded=1;whiteSpace=wrap;html=1;align=center;verticalAlign=middle;fontFamily=Comic Sans MS;fillColor=#ffe6cc;strokeColor=#d79b00;" vertex="1" parent="1">
          <mxGeometry x="740" y="450" width="180" height="30" as="geometry" />
        </mxCell>
        <mxCell id="3P8DteM4XdDS-40TDfUw-33" value="compatibility-matrix.hal.version&lt;font style=&quot;font-size: 18px;&quot;&gt;&lt;br&gt;&lt;/font&gt;" style="rounded=1;whiteSpace=wrap;html=1;align=center;verticalAlign=middle;fontFamily=Comic Sans MS;fillColor=#ffe6cc;strokeColor=#d79b00;" vertex="1" parent="1">
          <mxGeometry x="740" y="490" width="180" height="30" as="geometry" />
        </mxCell>
        <mxCell id="3P8DteM4XdDS-40TDfUw-35" value="compatibility-matrix.hal.interface.name&lt;font style=&quot;font-size: 18px;&quot;&gt;&lt;br&gt;&lt;/font&gt;" style="rounded=1;whiteSpace=wrap;html=1;align=center;verticalAlign=middle;fontFamily=Comic Sans MS;fillColor=#ffe6cc;strokeColor=#d79b00;" vertex="1" parent="1">
          <mxGeometry x="930" y="370" width="230" height="30" as="geometry" />
        </mxCell>
        <mxCell id="3P8DteM4XdDS-40TDfUw-38" value="&lt;font style=&quot;&quot;&gt;&lt;font style=&quot;font-size: 12px;&quot;&gt;compatibility-matrix.kernel.version&lt;/font&gt;&lt;br&gt;&lt;/font&gt;" style="rounded=1;whiteSpace=wrap;html=1;align=center;verticalAlign=middle;fontFamily=Comic Sans MS;fillColor=#ffe6cc;strokeColor=#d79b00;" vertex="1" parent="1">
          <mxGeometry x="930" y="410" width="230" height="30" as="geometry" />
        </mxCell>
        <mxCell id="3P8DteM4XdDS-40TDfUw-40" value="&lt;font style=&quot;&quot;&gt;compatibility-matrix.kernel.config.key&lt;br&gt;&lt;/font&gt;" style="rounded=1;whiteSpace=wrap;html=1;align=center;verticalAlign=middle;fontFamily=Comic Sans MS;fillColor=#ffe6cc;strokeColor=#d79b00;" vertex="1" parent="1">
          <mxGeometry x="930" y="450" width="230" height="30" as="geometry" />
        </mxCell>
        <mxCell id="3P8DteM4XdDS-40TDfUw-41" value="&lt;font style=&quot;&quot;&gt;compatibility-matrix.kernel.config.value&lt;br&gt;&lt;/font&gt;" style="rounded=1;whiteSpace=wrap;html=1;align=center;verticalAlign=middle;fontFamily=Comic Sans MS;fillColor=#ffe6cc;strokeColor=#d79b00;" vertex="1" parent="1">
          <mxGeometry x="930" y="490" width="230" height="30" as="geometry" />
        </mxCell>
        <mxCell id="3P8DteM4XdDS-40TDfUw-42" value="compatibility-matrix.kernel.config.value.type&lt;font style=&quot;font-size: 18px;&quot;&gt;&lt;br&gt;&lt;/font&gt;" style="rounded=1;whiteSpace=wrap;html=1;align=center;verticalAlign=middle;fontFamily=Comic Sans MS;fillColor=#ffe6cc;strokeColor=#d79b00;" vertex="1" parent="1">
          <mxGeometry x="1168" y="450" width="300" height="30" as="geometry" />
        </mxCell>
        <mxCell id="3P8DteM4XdDS-40TDfUw-43" value="compatibility-matrix.sepolicy&lt;font style=&quot;font-size: 18px;&quot;&gt;&lt;br&gt;&lt;/font&gt;" style="rounded=1;whiteSpace=wrap;html=1;align=center;verticalAlign=middle;fontFamily=Comic Sans MS;fillColor=#ffe6cc;strokeColor=#d79b00;" vertex="1" parent="1">
          <mxGeometry x="740" y="530" width="180" height="30" as="geometry" />
        </mxCell>
        <mxCell id="3P8DteM4XdDS-40TDfUw-44" value="&lt;font style=&quot;&quot;&gt;compatibility-matrix.sepolicy.sepolicy-version&lt;br&gt;&lt;/font&gt;" style="rounded=1;whiteSpace=wrap;html=1;align=center;verticalAlign=middle;fontFamily=Comic Sans MS;fillColor=#ffe6cc;strokeColor=#d79b00;" vertex="1" parent="1">
          <mxGeometry x="1168" y="370" width="300" height="30" as="geometry" />
        </mxCell>
        <mxCell id="3P8DteM4XdDS-40TDfUw-45" value="&lt;font style=&quot;&quot;&gt;compatibility-matrix.sepolicy.kernel-sepolicy-version&lt;br&gt;&lt;/font&gt;" style="rounded=1;whiteSpace=wrap;html=1;align=center;verticalAlign=middle;fontFamily=Comic Sans MS;fillColor=#ffe6cc;strokeColor=#d79b00;" vertex="1" parent="1">
          <mxGeometry x="1168" y="410" width="300" height="30" as="geometry" />
        </mxCell>
      </root>
    </mxGraphModel>
  </diagram>
</mxfile>
